<svg width="16" height="17" viewBox="0 0 16 17" fill="none" xmlns="http://www.w3.org/2000/svg">
<path d="M8 0.615723C12.4182 0.615723 16 4.19744 16 8.61572C16 13.034 12.4182 16.6157 8 16.6157C3.58172 16.6157 0 13.034 0 8.61572C0 4.19744 3.58172 0.615723 8 0.615723ZM10.5758 6.19146L7 9.76716L5.42426 8.19148C5.18995 7.95716 4.81005 7.95716 4.57574 8.19148C4.34142 8.4258 4.34142 8.80564 4.57574 9.03996L6.57576 11.04C6.81008 11.2743 7.18992 11.2743 7.42424 11.04L11.4242 7.03996C11.6586 6.80568 11.6586 6.42577 11.4242 6.19146C11.1899 5.95715 10.8101 5.95715 10.5758 6.19146Z" fill="url(#paint0_linear_213_409)"/>
<defs>
<linearGradient id="paint0_linear_213_409" x1="0.54043" y1="16.6157" x2="15.8724" y2="16.5033" gradientUnits="userSpaceOnUse">
<stop stop-color="#AA75FF"/>
<stop offset="1" stop-color="#4FAEFF"/>
</linearGradient>
</defs>
</svg>
